<mxfile host="app.diagrams.net" modified="2023-04-03T14:28:56.273Z" agent="Mozilla/5.0 (Windows NT 10.0; Win64; x64) AppleWebKit/537.36 (KHTML, like Gecko) Chrome/111.0.0.0 Safari/537.36" etag="3iMfx3lLqzfVNMCAtsBl" version="21.1.4" type="github">
  <diagram name="Página-1" id="jSvM062PUc782TIapKKx">
    <mxGraphModel dx="1434" dy="796" grid="1" gridSize="10" guides="1" tooltips="1" connect="1" arrows="1" fold="1" page="1" pageScale="1" pageWidth="827" pageHeight="1169" math="0" shadow="0">
      <root>
        <mxCell id="0" />
        <mxCell id="1" parent="0" />
        <mxCell id="Gvcg3IFoEU4xkpFQ4q6r-2" value="inicio" style="ellipse;whiteSpace=wrap;html=1;" parent="1" vertex="1">
          <mxGeometry x="350" y="110" width="120" height="40" as="geometry" />
        </mxCell>
        <mxCell id="Gvcg3IFoEU4xkpFQ4q6r-3" value="" style="endArrow=classic;html=1;rounded=0;exitX=0.5;exitY=1;exitDx=0;exitDy=0;" parent="1" source="Gvcg3IFoEU4xkpFQ4q6r-2" edge="1">
          <mxGeometry width="50" height="50" relative="1" as="geometry">
            <mxPoint x="390" y="130" as="sourcePoint" />
            <mxPoint x="410" y="200" as="targetPoint" />
          </mxGeometry>
        </mxCell>
        <mxCell id="Gvcg3IFoEU4xkpFQ4q6r-4" value="v1, v2, v3, v4" style="shape=parallelogram;perimeter=parallelogramPerimeter;whiteSpace=wrap;html=1;fixedSize=1;" parent="1" vertex="1">
          <mxGeometry x="330" y="200" width="170" height="40" as="geometry" />
        </mxCell>
        <mxCell id="Gvcg3IFoEU4xkpFQ4q6r-5" value="suma= v1+ v2 + v3 + v4&lt;br&gt;producto= v1 * v2 * v3* v4" style="rhombus;whiteSpace=wrap;html=1;" parent="1" vertex="1">
          <mxGeometry x="300" y="300" width="220" height="100" as="geometry" />
        </mxCell>
        <mxCell id="Gvcg3IFoEU4xkpFQ4q6r-6" value="" style="endArrow=classic;html=1;rounded=0;" parent="1" edge="1">
          <mxGeometry width="50" height="50" relative="1" as="geometry">
            <mxPoint x="410" y="240" as="sourcePoint" />
            <mxPoint x="410" y="300" as="targetPoint" />
          </mxGeometry>
        </mxCell>
        <mxCell id="Gvcg3IFoEU4xkpFQ4q6r-8" value="" style="endArrow=classic;html=1;rounded=0;exitX=0.5;exitY=1;exitDx=0;exitDy=0;" parent="1" source="Gvcg3IFoEU4xkpFQ4q6r-5" target="Gvcg3IFoEU4xkpFQ4q6r-9" edge="1">
          <mxGeometry width="50" height="50" relative="1" as="geometry">
            <mxPoint x="430" y="170" as="sourcePoint" />
            <mxPoint x="410" y="460" as="targetPoint" />
          </mxGeometry>
        </mxCell>
        <mxCell id="Gvcg3IFoEU4xkpFQ4q6r-9" value="suma&lt;br&gt;producto" style="shape=document;whiteSpace=wrap;html=1;boundedLbl=1;" parent="1" vertex="1">
          <mxGeometry x="300" y="450" width="220" height="80" as="geometry" />
        </mxCell>
        <mxCell id="Gvcg3IFoEU4xkpFQ4q6r-10" value="fin" style="ellipse;whiteSpace=wrap;html=1;" parent="1" vertex="1">
          <mxGeometry x="354" y="570" width="120" height="40" as="geometry" />
        </mxCell>
        <mxCell id="Gvcg3IFoEU4xkpFQ4q6r-11" value="" style="endArrow=classic;html=1;rounded=0;exitX=0.514;exitY=0.863;exitDx=0;exitDy=0;exitPerimeter=0;entryX=0.5;entryY=0;entryDx=0;entryDy=0;" parent="1" source="Gvcg3IFoEU4xkpFQ4q6r-9" target="Gvcg3IFoEU4xkpFQ4q6r-10" edge="1">
          <mxGeometry width="50" height="50" relative="1" as="geometry">
            <mxPoint x="390" y="310" as="sourcePoint" />
            <mxPoint x="440" y="260" as="targetPoint" />
          </mxGeometry>
        </mxCell>
        <mxCell id="Gvcg3IFoEU4xkpFQ4q6r-12" value="Realizar un programa que lea cuatro valores numéricos e informe su suma y&#xa;producto." style="text;whiteSpace=wrap;html=1;" parent="1" vertex="1">
          <mxGeometry x="194" y="10" width="440" height="50" as="geometry" />
        </mxCell>
      </root>
    </mxGraphModel>
  </diagram>
</mxfile>
